<svg fill="none" height="27" viewBox="0 0 177 27" width="177" xmlns="http://www.w3.org/2000/svg"><path clip-rule="evenodd" d="m18.8648 22.2559-8.1656-21.794474h-4.67509l-1.50492 4.033064 6.53791 17.76091c.3965 1.1101.2765 2.1826-2.25824 2.1826v1.4806h12.75784v-1.4806c-1.0697 0-2.1017-.554-2.6919-2.1826zm16.4059 2.1131h.849v1.5496h-12.8977v-1.3347c.4402-.0097.8736-.1076 1.272-.2876.3067-.1753.5538-.432.7116-.7392.1577-.3073.2193-.6517.1772-.9918v-10.8893c0-1.2269-.193-1.5867-1.8157-1.5495-.2963-.0042-.5926.007-.8877.0334v-1.26088c1.7765-.61239 5.2542-1.55007 7.4914-1.55007 2.0851 0 2.5867.64794 2.5867 2.30627v.97428c1.776-2.16297 3.6686-3.28055 5.7924-3.28055 1.97 0 3.5131 1.15313 3.5131 3.17335.0281.417-.0345.8351-.1837 1.2276-.1493.3926-.3819.751-.6833 1.0527-.3013.3017-.6647.54-1.0671.6998s-.835.2375-1.2704.2283c-2.4711 0-2.2394-2.5233-4.4412-2.5233-.5841.027-1.153.1876-1.6592.4686v10.8893c.0022 1.047.8517 1.8042 2.5126 1.8042zm9.6064-16.47824h16.4877l.657 1.00826-10.1168 15.03588h3.2028c1.2732-.0247 2.5044-.4408 3.5126-1.1872 1.0082-.7463 1.74-1.7835 2.0879-2.9589l1.3135.1449-.8495 5.9849h-17.4539l-.5791-.9372 10.1179-15.1086h-2.8593c-3.2029 0-4.5563 1.9104-5.3649 3.8956l-1.4275-.1809zm39.693 16.37004c.2301.0184.4613.0184.6914 0l.0387.8299c-1.7348.8891-3.6691 1.3594-5.6359 1.3702-3.5894 0-4.3637-1.479-4.3637-3.5698v-.3969c-1.2721 2.0197-3.2421 3.9306-6.3316 3.9306-2.9357 0-4.6348-1.731-4.6348-4.2915 0-3.426 3.0126-4.5786 6.9516-5.3358l4.0148-.7568v-.65c0-2.1275-.8484-3.5332-3.746-3.5332-2.189.0828-4.363.3852-6.4865.9021v-2.5599c3.2831-1.65835 6.9904-2.8481 10.1163-2.8481 5.481 0 7.4942 2.8125 7.4942 7.6092v7.0653c0 1.7655.4203 2.2341 1.8915 2.2341zm-9.2695-2.6321v-4.1467l-2.0066.4697c-1.3511.3247-2.3566.8644-2.3566 2.163 0 1.4062 1.1974 1.8748 2.3566 1.8748.6849-.0154 1.3626-.1375 2.0066-.3614zm22.0677 2.6321c.3833.1936.8062.3043 1.2389.3242v1.3346h-11.7031v-1.3346c.4421-.0093.8773-.1072 1.2776-.2876.3062-.1755.5527-.4325.7098-.7397.1571-.3073.2179-.6516.1751-.9914v-10.8892c0-1.1909-.1936-1.5496-1.6205-1.5496-.3097 0-.6582 0-1.0785.0334v-1.26188c1.7754-.61239 5.2487-1.55007 7.4886-1.55007 2.0851 0 2.5884.64794 2.5884 2.30627v1.33518c2.0464-2.09138 4.5964-3.64145 7.5274-3.64145 3.285 0 5.022 1.26139 5.636 3.82075 2.124-2.16401 4.679-3.82075 7.726-3.82075 4.287 0 5.946 2.12744 5.946 6.59775v8.6186c-.031.3375.04.6764.204.9767.163.3002.413.5492.719.7177.384.193.807.3036 1.239.3242v1.3347h-11.703v-1.3347c.442-.0092.878-.1072 1.278-.2876.306-.1755.553-.4324.71-.7397.157-.3072.218-.6516.175-.9913v-6.6334c0-2.7753-.459-4.6863-3.435-4.6863-.943-.02-1.879.1647-2.737.5402.125.7148.19 1.4382.193 2.163v8.6186c-.032.3377.038.677.202.9775.164.3004.415.5493.722.7169.381.1937.802.3044 1.233.3243v1.3346h-11.697v-1.3346c.44-.0093.873-.1073 1.272-.2877.307-.175.554-.4317.712-.7389s.22-.6519.178-.9921v-6.6333c0-2.7754-.465-4.6863-3.4401-4.6863-.9139-.0148-1.8207.1569-2.6603.5036v10.8181c-.0298.337.0413.6751.2049.9746.1637.2995.413.548.7188.7161zm50.2527 0c.23.0184.461.0184.691 0l.039.8299c-1.735.8891-3.669 1.3594-5.636 1.3702-3.59 0-4.364-1.479-4.364-3.5698v-.3969c-1.272 2.0197-3.246 3.9306-6.333 3.9306-2.931 0-4.634-1.731-4.634-4.2915 0-3.426 3.014-4.5786 6.952-5.3358l4.015-.7568v-.65c0-2.1275-.852-3.5332-3.744-3.5332-2.19.083-4.364.3854-6.488.9021v-2.5599c3.28-1.65835 6.986-2.8481 10.116-2.8481 5.486 0 7.494 2.8125 7.494 7.6092v7.0653c0 1.7655.426 2.2341 1.892 2.2341zm-9.27-2.6321v-4.1467l-2.008.4697c-1.349.3247-2.356.8644-2.356 2.163 0 1.4062 1.201 1.8748 2.356 1.8748.686-.0153 1.364-.1374 2.008-.3614zm11.77 3.5687-.117-5.1915 1.582-.181c1.388 2.8125 3.357 4.689 6.023 4.689 1.853 0 2.898-1.0083 2.898-2.1996 0-1.2625-1.277-1.8043-2.898-2.1996l-1.737-.4325c-2.627-.6496-5.558-2.3795-5.558-5.6978 0-3.9306 4.015-6.63333 9.496-6.63333 2.196-.04072 4.369.42942 6.333 1.37018l.387 4.61675-1.853.1062c-1.697-3.1739-3.478-4.14771-5.37-4.14771-1.659 0-2.511.97381-2.511 2.12801 0 1.4062 1.123 2.0563 2.627 2.4172l2.124.503c2.55.6151 5.641 1.8393 5.641 5.338 0 4.759-5.602 6.7787-10.27 6.7787-2.328-.0132-4.633-.442-6.797-1.2645zm22.98-4.992c-1.859 0-3.905-.8666-3.905-3.2816 0-2.4151 2.046-3.3172 3.905-3.3172 1.808 0 3.899.9021 3.899 3.3172 0 2.415-2.091 3.2811-3.899 3.2811zm-169.4623.3789c-1.85391 0-3.6387-.8666-3.6387-3.2816 0-2.4151 1.78479-3.3178 3.6387-3.3178 1.81243 0 3.65528.9022 3.65528 3.3178 0 2.4155-1.84562 3.2811-3.65805 3.2811z" fill="#bdbdbd" fill-rule="evenodd"/></svg>